Coordinates
version=1
nRows=8
nColumns=40
inDegrees=yes

Units are S.I. units (second, meters, Newtons, ...)
If the header above contains a line with 'inDegrees', this indicates whether rotational values are in degrees (yes) or radians (no).

endheader
time	pelvis_tilt	pelvis_list	pelvis_rotation	pelvis_tx	pelvis_ty	pelvis_tz	hip_flexion_r	hip_adduction_r	hip_rotation_r	knee_angle_r	knee_angle_r_beta	ankle_angle_r	subtalar_angle_r	mtp_angle_r	hip_flexion_l	hip_adduction_l	hip_rotation_l	knee_angle_l	knee_angle_l_beta	ankle_angle_l	subtalar_angle_l	mtp_angle_l	lumbar_extension	lumbar_bending	lumbar_rotation	arm_flex_r	arm_add_r	arm_rot_r	elbow_flex_r	pro_sup_r	wrist_flex_r	wrist_dev_r	arm_flex_l	arm_add_l	arm_rot_l	elbow_flex_l	pro_sup_l	wrist_flex_l	wrist_dev_l
      0.00000000	    -14.97203115	     -0.01042699	     -0.61679348	     -0.37286145	      1.14832277	      0.04677339	     54.26265312	     -3.25741449	      2.86310465	     67.64342116	      1.18060042	    -14.03427831	    -13.65004148	      0.00000000	     90.05137094	     -9.30269746	      5.58826936	     94.81634216	      1.65485736	      5.39254130	     -0.35537695	      0.00000000	    -43.24760909	     -1.01979912	      5.54793002	     89.84977663	    -15.87763868	     36.43025305	     22.85504119	     87.80099116	      0.00000000	      0.00000000	     89.35609439	     -2.81911622	     33.93401293	     19.06776486	     87.25130785	      0.00000000	      0.00000000
      0.00833333	    -14.89728435	     -0.56850251	     -0.72539174	     -0.37309886	      1.14823419	      0.04719354	     54.98611036	     -2.75789634	      2.70261310	     69.71516428	      1.21675916	    -14.03859959	    -13.58281396	      0.00000000	     89.02892597	     -9.43904612	      5.93692643	     92.71319977	      1.61815060	      5.40420070	     -0.45639868	      0.00000000	    -43.31908168	     -0.59293033	      6.03257585	     89.85656048	    -15.82030407	     36.29212021	     22.91330467	     87.78963750	      0.00000000	      0.00000000	     89.35848784	     -2.82599928	     33.85980200	     19.08671560	     87.25734411	      0.00000000	      0.00000000
      0.01666667	    -14.99960765	     -1.00223895	     -0.63589548	     -0.37337084	      1.14727129	      0.04719369	     56.18762919	     -2.57983562	      2.52092039	     72.23181439	      1.26068299	    -13.66509680	    -13.46893879	      0.00000000	     88.21026721	     -9.34659419	      6.15372939	     90.80817815	      1.58490170	      5.22172030	     -0.51775363	      0.00000000	    -43.13649632	     -0.11554852	      6.31084225	     89.85381264	    -15.79717706	     35.99350219	     22.90081475	     87.80853045	      0.00000000	      0.00000000	     89.31084414	     -2.73117133	     33.69135017	     18.92355179	     87.28987491	      0.00000000	      0.00000000
      0.02500000	    -15.02753328	     -1.29366797	     -0.66300027	     -0.37342623	      1.14663216	      0.04727505	     57.25499044	     -2.40199538	      2.48467406	     74.67243087	      1.30327978	    -12.96030464	    -13.33703961	      0.00000000	     87.02881089	     -9.34430292	      6.28436063	     88.54352882	      1.54537611	      5.13871671	     -0.57914287	      0.00000000	    -43.05498608	      0.17894478	      6.58070540	     89.85287224	    -15.94734914	     36.04239980	     23.21355924	     87.71557263	      0.00000000	      0.00000000	     89.26350060	     -2.69797366	     33.70204875	     18.79701752	     87.36645622	      0.00000000	      0.00000000
      0.03333333	    -15.08681951	     -1.55991753	     -0.53037246	     -0.37376853	      1.14612541	      0.04721573	     58.39474960	     -2.35572183	      2.51346554	     77.18640441	      1.34715689	    -12.31983715	    -13.94611211	      0.00000000	     85.86628023	     -9.10416264	      6.45948276	     86.35168652	      1.50712124	      4.92260888	     -0.71520363	      0.00000000	    -42.95496895	      0.55237262	      6.73807883	     89.85540056	    -16.02306968	     36.08547962	     23.33718656	     87.69047380	      0.00000000	      0.00000000	     89.24140743	     -2.61258224	     33.71448445	     18.73933085	     87.39790262	      0.00000000	      0.00000000
      0.04166667	    -15.53649857	     -1.52943040	     -0.52299603	     -0.37444084	      1.14511856	      0.04726654	     59.96298642	     -2.43180820	      2.71158876	     79.66049530	      1.39033793	    -11.37448899	    -12.20460632	      0.00000000	     84.88442977	     -9.01243814	      6.19237664	     83.70486863	      1.46092556	      4.18233336	     -1.23185500	      0.00000000	    -42.44249511	      0.60606222	      6.61363840	     89.85818283	    -15.77254467	     36.18468353	     23.12091960	     87.71465430	      0.00000000	      0.00000000	     89.20931859	     -2.78733077	     33.88002517	     18.70596109	     87.35995890	      0.00000000	      0.00000000
      0.05000000	    -15.59256383	     -2.11827972	     -0.46716369	     -0.37463946	      1.14464294	      0.04769532	     61.10069137	     -2.09799651	      2.36430759	     82.09145809	      1.43276623	    -10.72837399	    -12.24089804	      0.00000000	     83.58229480	     -9.10688752	      6.60840060	     81.10510542	      1.41555113	      3.37005902	     -1.07648284	      0.00000000	    -42.36077874	      1.17514853	      6.98965926	     89.85811218	    -15.77897312	     36.15667714	     23.22296032	     87.74261863	      0.00000000	      0.00000000	     89.20258178	     -2.75841455	     33.80085429	     18.58576677	     87.32293215	      0.00000000	      0.00000000
      0.05833333	    -15.62459142	     -2.66985140	     -0.41186911	     -0.37468933	      1.14419709	      0.04810045	     62.25246924	     -1.80841137	      2.09226566	     84.61252282	      1.47676711	     -9.87610617	    -12.10265836	      0.00000000	     82.17426471	     -9.20076636	      6.99921295	     78.48268524	      1.36978126	      2.47569934	     -1.02735141	      0.00000000	    -42.29503370	      1.71683374	      7.35081173	     89.86039420	    -15.77409215	     36.16699875	     23.23945482	     87.76565955	      0.00000000	      0.00000000	     89.15979739	     -2.74786708	     33.75324883	     18.54206991	     87.30819395	      0.00000000	      0.00000000
